PathFileType	4	(X/Y/Z)	C:/Users/beibeiliu/ov580/test_trc/User3\sequence.21_training_dense_right.trc
DataRate	CameraRate	NumFrames	NumMarkers	Units	OrigDataRate	OrigDataStartFrame	OrigNumFrames
120	120	14	19	mm	120	100	265
Frame#	Time	ThumbCMC			ThumbMCP			ThumbIP			ThumbTip			IndexMCP			IndexPIP			IndexTip			MiddleMCP			MiddlePIP			MiddleTip			RingMCP			RingPIP			RingTip			PinkyMCP			PinkyPIP			PinkyTip			BackHand1			BackHand2			BackHand3	
		X0	Y0	Z0	X1	Y1	Z1	X2	Y2	Z2	X3	Y3	Z3	X4	Y4	Z4	X5	Y5	Z5	X6	Y6	Z6	X7	Y7	Z7	X8	Y8	Z8	X9	Y9	Z9	X10	Y10	Z10	X11	Y11	Z11	X12	Y12	Z12	X13	Y13	Z13	X14	Y14	Z14	X15	Y15	Z15	X16	Y16	Z16	X17	Y17	Z17	X18	Y18	Z18	
99	0.825	104.594	-4.32897	-17.5886	86.1315	-17.0519	-36.737	73.9711	-31.6912	-61.6657	64.9095	-46.5368	-80.7381	87.9424	-39.3263	-73.6461	70.0288	-53.9251	-53.3324	85.3375	-31.2121	-28.9623	99.4117	-57.9772	-66.2332	81.2996	-65.0949	-40.7257	107.787	-41.0715	-19.5102	108.735	-69.1947	-55.2041	95.3334	-72.9839	-28.4342	109.451	-48.7578	-10.8977	122.89	-78.0956	-42.9673	103.804	-70.2439	-20.5277	117.264	-44.1861	-10.2042	155.595	-36.8279	-42.2315	165.844	-24.25	-10.4782	140.826	-5.22442	-31.0611	
100	0.833333	104.257	1.69139	-12.3208	80.1403	-7.11776	-32.2082	67.5055	-22.2743	-52.4074	56.3793	-34.2626	-69.6728	83.3917	-31.1249	-73.3282	58.3732	-43.045	-54.827	74.0234	-31.428	-28.0737	86.4719	-50.648	-61.4801	70.5556	-54.1788	-35.6092	100.794	-38.6618	-14.7197	100.16	-65.9629	-49.8833	84.0652	-65.2908	-24.5612	106.391	-43.2353	-5.17614	109.682	-73.3927	-39.9004	96.4415	-64.4108	-17.678	121.622	-50.154	-7.84049	147.087	-36.5761	-42.2746	160.98	-26.7322	-14.2224	139.081	-4.94719	-26.4998	
101	0.841667	103.911	7.20038	-11.1687	79.7342	0.40091	-33.1304	67.2242	-16.7758	-52.1595	50.6102	-22.0664	-65.9911	78.2689	-22.4	-70.0668	53.3107	-33.0831	-52.3747	70.9431	-25.6605	-25.3905	80.9557	-43.7228	-58.6069	62.665	-42.1037	-29.8267	91.8643	-29.7479	-11.281	90.2697	-55.11	-49.258	73.8183	-57.3345	-23.4345	93.5379	-40.3446	2.89004	98.6821	-71.345	-36.9333	88.1515	-57.9329	-16.8855	110.312	-37.8674	-14.5822	142.547	-35.6182	-38.8265	157.853	-29.8944	-10.7086	136.749	-0.571346	-27.6774	
102	0.85	104.057	13.4922	-2.28576	81.8733	8.14795	-28.9127	66.6673	-3.9472	-48.215	54.9647	-15.1008	-66.6341	81.7962	-13.4847	-68.4406	53.8377	-23.6162	-54.5951	68.2392	-12.9331	-24.4319	83.1827	-33.219	-59.7112	60.4134	-36.0134	-34.9893	90.3035	-18.7859	-9.88603	90.6972	-52.0519	-48.943	70.8327	-47.1348	-21.6362	92.8242	-34.1284	0.899161	95.6668	-61.2653	-39.931	85.8828	-54.6114	-16.937	112.576	-35.3437	-9.15435	140.514	-31.5186	-38.8036	156.293	-29.0785	-8.27487	136.911	2.90242	-22.213	
103	0.858333	115.873	13.082	-7.9812	91.7889	11.9766	-32.9365	70.1959	4.69312	-53.448	56.9506	-5.49811	-66.5336	83.9703	-13.5569	-70.9208	56.2137	-11.932	-53.8452	74.073	-5.11174	-27.9738	83.0644	-31.4319	-59.0832	57.0213	-23.4852	-32.9885	78.4227	-14.9175	-2.99846	80.6241	-45.9746	-44.6051	65.214	-36.3147	-22.8193	82.0463	-24.7155	4.07842	87.0792	-59.0913	-33.2051	75.6214	-47.0531	-13.9481	93.1453	-33.2487	6.75754	137.935	-39.5216	-31.5806	153.692	-37.3797	-6.49586	143.998	-3.7338	-22.5678	
104	0.866667	120.148	21.9683	-19.3778	93.7175	19.2464	-39.67	74.9563	7.3059	-58.0976	58.0972	-0.30192	-71.1974	81.3636	-15.3937	-71.4416	55.7229	-6.82221	-54.1362	79.6182	-0.384973	-29.0361	77.9695	-30.8135	-57.205	61.9852	-18.0674	-32.6381	97.6682	-13.3229	-13.9577	81.3005	-42.2328	-42.3075	71.5317	-28.4918	-17.6712	103.48	-17.1842	-8.50246	88.1008	-53.1479	-30.4149	81.1748	-35.4237	-10.0842	110.41	-27.3903	-5.00537	139.395	-41.5645	-35.1568	156.465	-27.8674	-7.4154	144.925	-4.8917	-31.2186	
105	0.875	125.992	20.8084	-22.1712	103.005	24.2031	-41.8484	80.5801	15.5518	-63.4484	65.575	4.30122	-74.5866	85.6464	-12.8767	-74.2177	60.5117	-2.97896	-57.5932	84.0751	9.35782	-33.8826	83.9715	-23.5872	-60.4305	63.6543	-13.817	-34.4004	100.11	-9.15982	-15.8117	84.4353	-36.725	-45.7072	73.5845	-22.6348	-18.8606	105.343	-11.2759	-11.7478	86.8542	-48.8152	-31.6627	79.825	-32.6902	-11.2741	109.463	-24.9795	-0.791612	139.081	-43.4724	-36.9795	157.556	-32.8132	-8.66759	150.749	-2.81959	-31.8746	
106	0.883333	139.06	16.8287	-24.5792	115.138	25.1106	-50.4706	92.0167	15.9204	-65.619	71.2585	5.04487	-79.5761	101.669	-9.95344	-76.2955	77.7728	5.718	-61.6468	95.0823	7.87258	-33.0848	91.3732	-22.6916	-67.8358	73.4433	-2.23756	-44.6431	103.376	-5.77931	-21.8081	81.7735	-34.1985	-49.3159	71.5976	-13.4909	-31.5181	99.2181	-1.28112	-12.0035	81.9217	-44.9985	-34.5396	77.5554	-23.3754	-17.7217	106.734	-20.9206	-8.96763	135.931	-51.3187	-26.8345	149.481	-41.9772	-0.118886	155.862	-18.3636	-29.4129	
107	0.891667	146.981	14.1148	-25.6233	122.847	15.1945	-49.8224	102.14	14.7181	-73.4066	81.9073	2.86137	-82.159	104.125	-9.68915	-77.8617	86.4051	11.7962	-63.198	114.062	10.069	-37.4346	91.7966	-22.5155	-65.6802	79.5271	2.42809	-49.8579	108.526	2.26458	-21.9516	85.0018	-28.3073	-47.8609	81.1117	-6.76406	-29.1954	114.508	-5.66019	-19.5196	84.2941	-39.9555	-33.9142	81.5258	-14.4849	-21.8127	108.533	-17.5308	-10.8497	134.835	-53.0008	-27.4192	148.239	-44.6844	-0.449029	158.948	-21.1117	-30.3151	
108	0.9	152.603	9.43257	-33.6049	132.349	14.7412	-57.286	107.962	7.77905	-77.9491	92.9917	8.59644	-89.439	100.273	-11.9255	-78.3702	88.9382	13.4719	-61.5916	113.185	12.1145	-42.1129	91.2045	-20.9931	-67.4395	82.7576	4.18596	-45.9484	114.368	0.456975	-27.9016	85.3047	-29.847	-51.1904	78.0555	-8.2632	-33.4403	109.023	-3.25112	-21.7319	82.7443	-36.0518	-33.8393	84.1457	-13.6785	-18.8124	114.085	-19.0435	-6.83967	136.45	-51.3458	-32.0401	155.414	-44.5132	-3.9534	161.148	-26.7822	-40.0243	
109	0.908333	157.899	8.86678	-30.6648	143.027	16.9443	-59.5753	122.146	10.6854	-80.3629	103.473	7.77936	-99.4221	110.655	-11.0863	-85.6661	94.2662	9.47123	-69.851	116.079	7.3505	-43.9435	100.564	-21.5946	-73.958	86.8029	3.32761	-56.9772	118.739	-6.05552	-28.5454	92.5866	-27.5699	-58.0646	85.3433	-7.44258	-38.5403	119.208	-6.20365	-24.7844	88.2994	-37.9617	-38.4342	93.5801	-10.9158	-29.5391	117.749	-16.4216	-14.628	140.559	-52.1387	-34.1407	157.654	-44.7076	-4.88867	166.026	-27.5624	-37.2587	
110	0.916667	162.752	1.81858	-33.5652	149.057	6.53823	-62.9824	129.886	5.87095	-83.7075	111.26	0.621767	-99.3862	122.815	-20.1737	-93.7384	101.026	2.25183	-90.8104	111.9	12.1154	-63.1322	105.514	-22.1649	-76.4314	95.7673	4.54825	-60.1454	124.141	-5.60824	-32.6144	95.9534	-29.9582	-56.9841	96.6808	0.0552405	-43.1664	122.641	-8.86164	-23.7379	90.5812	-37.1871	-45.6642	88.1701	-11.6482	-31.1198	115.023	-14.7544	-18.1875	138.54	-57.588	-33.0514	153.281	-48.8495	-2.38752	168.583	-31.9309	-37.2734	
111	0.925	172.298	0.884539	-36.1703	157.8	4.7544	-68.4272	137.725	0.0545785	-92.6888	119.414	-5.05429	-108.763	129.537	-27.0323	-94.33	112.351	1.16416	-91.428	130.954	5.98031	-62.2001	113.232	-30.7249	-79.4122	101.074	-1.38667	-68.9877	126.77	-5.92716	-38.3541	101.998	-29.722	-63.1986	98.5662	-6.09388	-48.6812	127.798	-6.16669	-33.2737	95.3442	-35.7365	-48.1427	101.623	-10.0922	-40.4075	124.134	-17.6578	-22.428	142.047	-59.6653	-26.1186	156.474	-52.1099	-2.92214	173.533	-34.8004	-33.1961	
112	0.933333	174.666	-6.52455	-40.4048	161.455	-1.52863	-70.8092	143.827	-6.82155	-93.1776	120.581	-15.034	-101.148	135.319	-31.0661	-98.3985	121.209	-4.6887	-101.599	135.037	4.58348	-70.509	120.07	-32.4466	-86.7066	107.818	-4.44791	-77.4398	132.541	-6.82815	-46.0265	110.018	-35.6187	-69.4334	103.714	-6.29935	-57.1244	129.313	-9.79517	-36.5944	102.054	-37.6858	-55.069	101.332	-12.0428	-42.1481	124.807	-21.5604	-24.2891	144.302	-61.6835	-32.2322	158.265	-53.3618	-5.2234	174.723	-42.424	-37.3137	
